<svg xmlns="http://www.w3.org/2000/svg" xmlns:xlink="http://www.w3.org/1999/xlink" aria-hidden="true" role="img" width="64" height="64" viewBox="0 0 16 16" style="color: rgb(74, 85, 101);"><g fill="none"><path fill="url(#iconifyReact74)" d="M6.625 2H3.5a.5.5 0 0 0-.447.276l-2 4h4.503z"></path><path fill="url(#iconifyReact75)" d="M10.444 6.276L9.375 2H12.5a.5.5 0 0 1 .447.276l2 4z"></path><path fill="url(#iconifyReact76)" d="M6.015 2.379A.5.5 0 0 1 6.5 2h3a.5.5 0 0 1 .485.379l1 4q.015.06.015.121H5a.5.5 0 0 1 .015-.121z"></path><path fill="url(#iconifyReact77)" d="M5.568 6H1.191l-.138.276a.5.5 0 0 0 .059.54l6.5 8a.5.5 0 0 0 .765.012z"></path><path fill="url(#iconifyReact78)" d="M7.623 14.828L10.432 6h4.377l.138.276a.5.5 0 0 1-.059.54l-6.5 8a.5.5 0 0 1-.765.012"></path><path fill="url(#iconifyReact79)" d="m5.11 6l-.095.379a.5.5 0 0 0 .008.27l2.5 8a.5.5 0 0 0 .954 0l2.5-8a.5.5 0 0 0 .008-.27L10.89 6z"></path><path fill="url(#iconifyReact80)" fill-opacity=".7" d="M3.5 2a.5.5 0 0 0-.447.276l-2 4a.5.5 0 0 0 .059.54l6.5 8a.5.5 0 0 0 .776 0l6.5-8a.5.5 0 0 0 .06-.54l-2-4A.5.5 0 0 0 12.5 2z"></path><defs><linearGradient id="iconifyReact74" x1="5.829" x2="3.513" y1=".218" y2="5.76" gradientUnits="userSpaceOnUse"><stop stop-color="#9ff0f9"></stop><stop offset="1" stop-color="#29c3ff"></stop></linearGradient><linearGradient id="iconifyReact75" x1="11.365" x2="14.004" y1="2" y2="8.632" gradientUnits="userSpaceOnUse"><stop stop-color="#0fafff"></stop><stop offset="1" stop-color="#102784"></stop></linearGradient><linearGradient id="iconifyReact76" x1="8" x2="8" y1="2" y2="7.625" gradientUnits="userSpaceOnUse"><stop stop-color="#3bd5ff"></stop><stop offset="1" stop-color="#367af2"></stop></linearGradient><linearGradient id="iconifyReact77" x1="2.302" x2="7.818" y1="4.2" y2="14.84" gradientUnits="userSpaceOnUse"><stop stop-color="#0094f0"></stop><stop offset="1" stop-color="#6ce0ff"></stop></linearGradient><linearGradient id="iconifyReact78" x1="16.736" x2="8.517" y1="1.5" y2="13.828" gradientUnits="userSpaceOnUse"><stop stop-color="#1b44b1"></stop><stop offset="1" stop-color="#2052cb"></stop></linearGradient><linearGradient id="iconifyReact79" x1="7.996" x2="7.996" y1="2.85" y2="15" gradientUnits="userSpaceOnUse"><stop stop-color="#2052cb"></stop><stop offset="1" stop-color="#0fafff"></stop></linearGradient><linearGradient id="iconifyReact80" x1="-.422" x2="10.764" y1="-10.242" y2="16.053" gradientUnits="userSpaceOnUse"><stop offset=".533" stop-color="#ff6ce8" stop-opacity="0"></stop><stop offset="1" stop-color="#ff6ce8"></stop></linearGradient></defs></g></svg>